<?xml version="1.0" encoding="UTF-8" standalone="no"?>
<svg
   width="1523.9396"
   height="358.14392"
   viewBox="0 0 1523.9396 358.14392"
   version="1.1"
   id="svg26"
   xmlns="http://www.w3.org/2000/svg"
   xmlns:svg="http://www.w3.org/2000/svg">
  <defs
     id="defs30" />
  <g
     id="g24"
     transform="translate(-123.53111,-190.92802)">
    <path
       d="m 401.49128,334.89388 a 25.58839,25.58839 0 0 1 -8.79451,17.98787 l -69.28086,60.40792 a 26.18406,26.18406 0 0 1 -17.2706,6.4438 7.12741,7.12741 0 0 1 -0.91518,-0.0393 l -2.62628,-0.23719 a 25.82773,25.82773 0 0 1 -13.68907,-6.48362 l -40.11219,-36.37124 c -9.86878,-8.89512 -12.21672,-23.04833 -5.65065,-33.64338 a 26.16854,26.16854 0 0 1 39.75394,-5.5346 l 13.41048,12.09736 a 15.67511,15.67511 0 0 0 20.89174,0.19762 l 40.51,-35.30374 c 7.99858,-6.958 18.94187,-8.89513 27.89547,-4.98131 a 26.03037,26.03037 0 0 1 15.87771,25.45984 z"
       style="fill:#25cf60"
       id="path2" />
    <path
       d="M 256.54924,542.79412 C 160.64338,516.9213 103.80724,418.3593 129.85011,323.07976 155.89298,227.80022 255.10357,171.33276 351.00942,197.20561 a 26.62543,26.62543 0 1 1 -14.03987,51.36577 c -67.39132,-18.18036 -137.10991,21.5018 -155.41111,88.45789 -18.30054,66.95365 21.64,136.21628 89.03134,154.39664 67.39622,18.18169 137.11414,-21.498 155.41468,-88.45169 a 26.77887,26.77887 0 0 1 51.70832,13.94951 c -26.04289,95.27954 -125.25769,151.7432 -221.16354,125.87039 z"
       style="fill:#25cf60"
       id="path4" />
    <g
       id="g22">
      <path
         d="M 585.61816,315.45982 H 539.28711 V 288.493 H 664.707 v 26.9668 h -46.33 v 135.76076 h -32.75884 z"
         style="fill:#1b1b20"
         id="path6" />
      <path
         d="m 690.21484,280.35728 c 10.76368,0 18.48536,7.90332 18.48536,18.36426 0,10.46094 -7.72168,18.36523 -18.48536,18.36523 -10.76368,0 -18.48535,-7.90429 -18.48535,-18.36523 0,-10.46094 7.72168,-18.36426 18.48535,-18.36426 z m -15.91113,49.98047 H 706.127 v 120.88281 h -31.82329 z"
         style="fill:#1b1b20"
         id="path8" />
      <path
         d="m 726.48047,330.33775 h 30.41894 v 14.41309 c 6.084,-11.15918 17.78321,-17.20313 35.09864,-17.20313 15.67773,0 27.8457,6.27637 35.09961,17.20313 8.8916,-11.3916 22.46289,-17.20313 40.24707,-17.20313 25.50488,0 43.52246,17.20313 43.52246,46.26074 v 77.41211 H 879.044 v -72.29785 c 0,-13.94726 -6.31739,-23.94336 -21.76172,-23.94336 -14.03907,0 -22.69727,8.36817 -22.69727,24.6416 v 71.59961 h -31.82329 v -72.29785 c 0,-13.94726 -6.31738,-23.94336 -21.76074,-23.94336 -14.27344,0 -22.69727,8.36817 -22.69727,24.6416 v 71.59961 h -31.82324 z"
         style="fill:#1b1b20"
         id="path10" />
      <path
         d="m 923.96875,400.078 v -16.50587 c 0,-32.77735 19.65527,-56.02442 56.1582,-56.02442 36.03515,0 54.28615,23.94434 54.28615,53.00293 v 21.1543 h -79.55763 v 3.02246 c 0,14.17969 7.25391,26.501 25.73926,26.501 13.57226,0 21.99607,-6.97364 25.03707,-15.34278 h 27.8457 c -4.2119,22.084 -25.9736,38.125 -52.88277,38.125 -34.39649,-2e-5 -56.62598,-19.9922 -56.62598,-53.93262 z m 30.88672,-20.68946 h 50.30863 v -3.02246 c 0,-15.11035 -7.95512,-26.501 -25.03715,-26.501 -18.251,0 -25.27148,12.08789 -25.27148,28.36035 z"
         style="fill:#1b1b20"
         id="path12" />
      <path
         d="m 1046.1123,381.48033 v -23.24707 c 0,-41.61133 22.2295,-72.99414 71.6025,-72.99414 41.416,0 66.9219,27.89551 68.5596,61.13867 h -30.4189 c -2.1065,-18.36523 -13.8057,-34.40527 -38.1407,-34.40527 -27.3779,0 -39.0771,18.59765 -39.0771,44.63379 v 26.501 c 0,26.03711 11.6992,44.63379 39.0771,44.63379 24.335,0 36.0342,-16.04 38.1407,-34.40527 h 30.4189 c -1.6377,33.24316 -27.1435,61.13965 -68.5596,61.13965 -49.373,-3e-5 -71.6025,-31.38382 -71.6025,-72.99515 z"
         style="fill:#1b1b20"
         id="path14" />
      <path
         d="m 1196.5693,416.35045 c 0,-26.26856 19.8897,-38.35743 49.1387,-38.35743 14.5078,0 25.2715,5.57911 30.8877,10.22852 v -16.50488 c 0,-11.15821 -7.956,-19.52735 -21.0596,-19.52735 -10.998,0 -17.7832,4.88184 -21.0595,11.39063 h -29.4834 c 7.0205,-23.47852 25.9736,-36.03223 52.1806,-36.03223 30.419,0 51.2452,18.36524 51.2452,46.49317 v 77.17968 h -30.6534 v -11.1582 c -5.6162,8.13574 -21.0595,13.94824 -35.0996,13.94824 -27.3769,0 -46.0967,-14.18066 -46.0967,-37.66015 z m 80.0264,-1.16211 c 0,-10.69336 -10.5303,-16.97071 -24.8037,-16.97071 -14.9756,0 -24.335,6.04493 -24.335,17.20313 0,11.1582 10.0615,17.667 23.3994,17.667 14.0391,-10e-6 25.7393,-7.67091 25.7393,-17.89942 z"
         style="fill:#1b1b20"
         id="path16" />
      <path
         d="m 1326.9014,330.33775 h 30.4189 v 14.41309 c 6.084,-11.15918 17.7832,-17.20313 35.0987,-17.20313 15.6777,0 27.8457,6.27637 35.0996,17.20313 8.8916,-11.3916 22.4629,-17.20313 40.247,-17.20313 25.5049,0 43.5225,17.20313 43.5225,46.26074 v 77.41211 h -31.8233 v -72.29785 c 0,-13.94726 -6.3173,-23.94336 -21.7617,-23.94336 -14.039,0 -22.6972,8.36817 -22.6972,24.6416 v 71.59961 h -31.8233 v -72.29785 c 0,-13.94726 -6.3174,-23.94336 -21.7607,-23.94336 -14.2735,0 -22.6973,8.36817 -22.6973,24.6416 v 71.59961 h -31.8232 z"
         style="fill:#1b1b20"
         id="path18" />
      <path
         d="m 1647.4707,380.78306 v 19.99219 c 0,29.0586 -18.251,53.23535 -51.0107,53.23535 -16.1455,0 -28.5469,-6.50976 -34.8643,-15.80859 v 53.46777 h -31.8232 v -161.332 h 30.4189 v 14.41309 c 6.084,-9.29883 18.4854,-17.20313 36.0352,-17.20313 33.4609,-3e-5 51.2441,24.64157 51.2441,53.23532 z m -85.875,1.39454 v 17.668 c 0,18.36426 12.167,28.59278 26.6748,28.59278 18.0176,0 27.377,-12.08789 27.377,-29.05762 V 382.1776 c 0,-16.04 -8.6573,-29.0586 -27.1426,-29.0586 -16.1455,0 -26.9092,12.08887 -26.9092,29.0586 z"
         style="fill:#1b1b20"
         id="path20" />
    </g>
  </g>
</svg>
